<mxfile host="app.diagrams.net" agent="Mozilla/5.0 (Windows NT 10.0; Win64; x64) AppleWebKit/537.36 (KHTML, like Gecko) Chrome/133.0.0.0 Safari/537.36" version="26.0.14">
  <diagram id="C5RBs43oDa-KdzZeNtuy" name="Page-1">
    <mxGraphModel dx="2954" dy="1098" grid="1" gridSize="10" guides="1" tooltips="1" connect="1" arrows="1" fold="1" page="1" pageScale="1" pageWidth="1100" pageHeight="850" math="0" shadow="0">
      <root>
        <mxCell id="WIyWlLk6GJQsqaUBKTNV-0" />
        <mxCell id="WIyWlLk6GJQsqaUBKTNV-1" parent="WIyWlLk6GJQsqaUBKTNV-0" />
        <mxCell id="qXrGf-TQxH9eDe8rJbfz-16" value="" style="ellipse;html=1;shape=startState;fillColor=#000000;strokeColor=#ff0000;" vertex="1" parent="WIyWlLk6GJQsqaUBKTNV-1">
          <mxGeometry x="130" y="40" width="30" height="30" as="geometry" />
        </mxCell>
        <mxCell id="qXrGf-TQxH9eDe8rJbfz-17" value="" style="edgeStyle=orthogonalEdgeStyle;html=1;verticalAlign=bottom;endArrow=open;endSize=8;strokeColor=#ff0000;rounded=0;entryX=0.5;entryY=0;entryDx=0;entryDy=0;" edge="1" source="qXrGf-TQxH9eDe8rJbfz-16" parent="WIyWlLk6GJQsqaUBKTNV-1" target="qXrGf-TQxH9eDe8rJbfz-31">
          <mxGeometry relative="1" as="geometry">
            <mxPoint x="145" y="150" as="targetPoint" />
          </mxGeometry>
        </mxCell>
        <mxCell id="qXrGf-TQxH9eDe8rJbfz-31" value="Interactable&#xa;[BUTTON]" style="swimlane;fontStyle=1;align=center;verticalAlign=middle;childLayout=stackLayout;horizontal=1;startSize=30;horizontalStack=0;resizeParent=0;resizeLast=1;container=0;fontColor=#000000;collapsible=0;rounded=1;arcSize=30;strokeColor=#ff0000;fillColor=#ffffc0;swimlaneFillColor=#ffffc0;dropTarget=0;" vertex="1" parent="WIyWlLk6GJQsqaUBKTNV-1">
          <mxGeometry x="55" y="100" width="180" height="100" as="geometry" />
        </mxCell>
        <mxCell id="qXrGf-TQxH9eDe8rJbfz-32" value="Player Interacts with Button" style="text;html=1;strokeColor=none;fillColor=none;align=center;verticalAlign=middle;spacingLeft=4;spacingRight=4;whiteSpace=wrap;overflow=hidden;rotatable=0;fontColor=#000000;" vertex="1" parent="qXrGf-TQxH9eDe8rJbfz-31">
          <mxGeometry y="30" width="180" height="70" as="geometry" />
        </mxCell>
        <mxCell id="qXrGf-TQxH9eDe8rJbfz-41" value="UnityEvent" style="html=1;verticalAlign=bottom;endArrow=block;curved=0;rounded=0;entryX=0;entryY=0;entryDx=0;entryDy=0;exitX=1;exitY=0;exitDx=0;exitDy=0;strokeWidth=2;" edge="1" parent="WIyWlLk6GJQsqaUBKTNV-1" source="qXrGf-TQxH9eDe8rJbfz-32" target="qXrGf-TQxH9eDe8rJbfz-44">
          <mxGeometry width="80" relative="1" as="geometry">
            <mxPoint x="255" y="140" as="sourcePoint" />
            <mxPoint x="335" y="149.5" as="targetPoint" />
          </mxGeometry>
        </mxCell>
        <mxCell id="qXrGf-TQxH9eDe8rJbfz-42" value="OnInteract" style="edgeLabel;html=1;align=center;verticalAlign=middle;resizable=0;points=[];" vertex="1" connectable="0" parent="qXrGf-TQxH9eDe8rJbfz-41">
          <mxGeometry x="-0.0197" y="-18" relative="1" as="geometry">
            <mxPoint as="offset" />
          </mxGeometry>
        </mxCell>
        <mxCell id="qXrGf-TQxH9eDe8rJbfz-43" value="PlatformSpawner&#xa;[ITEM/KEYCARD]" style="swimlane;fontStyle=1;align=center;verticalAlign=middle;childLayout=stackLayout;horizontal=1;startSize=30;horizontalStack=0;resizeParent=0;resizeLast=1;container=0;fontColor=#000000;collapsible=0;rounded=1;arcSize=30;strokeColor=#ff0000;fillColor=#ffffc0;swimlaneFillColor=#ffffc0;dropTarget=0;" vertex="1" parent="WIyWlLk6GJQsqaUBKTNV-1">
          <mxGeometry x="325" y="100" width="220" height="100" as="geometry" />
        </mxCell>
        <mxCell id="qXrGf-TQxH9eDe8rJbfz-44" value="Attempt to Spawn Item" style="text;html=1;strokeColor=none;fillColor=none;align=center;verticalAlign=middle;spacingLeft=4;spacingRight=4;whiteSpace=wrap;overflow=hidden;rotatable=0;fontColor=#000000;" vertex="1" parent="qXrGf-TQxH9eDe8rJbfz-43">
          <mxGeometry y="30" width="220" height="70" as="geometry" />
        </mxCell>
        <mxCell id="qXrGf-TQxH9eDe8rJbfz-48" value="CanSpawn" style="rhombus;whiteSpace=wrap;html=1;fontColor=#000000;fillColor=#ffffc0;strokeColor=#ff0000;" vertex="1" parent="WIyWlLk6GJQsqaUBKTNV-1">
          <mxGeometry x="720" y="100" width="80" height="40" as="geometry" />
        </mxCell>
        <mxCell id="qXrGf-TQxH9eDe8rJbfz-49" value="no" style="edgeStyle=orthogonalEdgeStyle;html=1;align=left;verticalAlign=bottom;endArrow=open;endSize=8;strokeColor=#ff0000;rounded=0;exitX=0.5;exitY=1;exitDx=0;exitDy=0;" edge="1" source="qXrGf-TQxH9eDe8rJbfz-48" parent="WIyWlLk6GJQsqaUBKTNV-1" target="qXrGf-TQxH9eDe8rJbfz-53">
          <mxGeometry relative="1" as="geometry">
            <mxPoint x="795" y="150" as="targetPoint" />
            <mxPoint x="680" y="150" as="sourcePoint" />
            <mxPoint as="offset" />
          </mxGeometry>
        </mxCell>
        <mxCell id="qXrGf-TQxH9eDe8rJbfz-50" value="yes" style="edgeStyle=orthogonalEdgeStyle;html=1;align=left;verticalAlign=top;endArrow=open;endSize=8;strokeColor=#ff0000;rounded=0;exitX=1;exitY=0.5;exitDx=0;exitDy=0;" edge="1" source="qXrGf-TQxH9eDe8rJbfz-48" parent="WIyWlLk6GJQsqaUBKTNV-1" target="qXrGf-TQxH9eDe8rJbfz-51">
          <mxGeometry x="-1" relative="1" as="geometry">
            <mxPoint x="525" y="270" as="targetPoint" />
            <mxPoint x="455" y="340" as="sourcePoint" />
            <mxPoint as="offset" />
          </mxGeometry>
        </mxCell>
        <mxCell id="qXrGf-TQxH9eDe8rJbfz-53" value="" style="ellipse;html=1;shape=endState;fillColor=#000000;strokeColor=#ff0000;" vertex="1" parent="WIyWlLk6GJQsqaUBKTNV-1">
          <mxGeometry x="745" y="180" width="30" height="30" as="geometry" />
        </mxCell>
        <mxCell id="qXrGf-TQxH9eDe8rJbfz-51" value="Item Spawns" style="rounded=1;whiteSpace=wrap;html=1;arcSize=40;fontColor=#000000;fillColor=#ffffc0;strokeColor=#ff0000;perimeterSpacing=0;shadow=0;glass=0;strokeWidth=5;gradientColor=none;fontStyle=1;fontSize=15;" vertex="1" parent="WIyWlLk6GJQsqaUBKTNV-1">
          <mxGeometry x="945" y="90" width="135" height="60" as="geometry" />
        </mxCell>
        <mxCell id="qXrGf-TQxH9eDe8rJbfz-55" value="" style="edgeStyle=orthogonalEdgeStyle;html=1;verticalAlign=bottom;endArrow=open;endSize=8;strokeColor=#ff0000;rounded=0;exitX=1;exitY=0;exitDx=0;exitDy=0;entryX=0;entryY=0.5;entryDx=0;entryDy=0;" edge="1" parent="WIyWlLk6GJQsqaUBKTNV-1" source="qXrGf-TQxH9eDe8rJbfz-44" target="qXrGf-TQxH9eDe8rJbfz-48">
          <mxGeometry relative="1" as="geometry">
            <mxPoint x="665" y="410" as="targetPoint" />
            <mxPoint x="665" y="290" as="sourcePoint" />
          </mxGeometry>
        </mxCell>
        <mxCell id="qXrGf-TQxH9eDe8rJbfz-71" value="Collectible&#xa;[ITEM/KEYCARD]" style="swimlane;fontStyle=1;align=center;verticalAlign=middle;childLayout=stackLayout;horizontal=1;startSize=30;horizontalStack=0;resizeParent=0;resizeLast=1;container=0;fontColor=#000000;collapsible=0;rounded=1;arcSize=30;strokeColor=#ff0000;fillColor=#ffffc0;swimlaneFillColor=#ffffc0;dropTarget=0;" vertex="1" parent="WIyWlLk6GJQsqaUBKTNV-1">
          <mxGeometry x="55" y="260" width="200" height="100" as="geometry" />
        </mxCell>
        <mxCell id="qXrGf-TQxH9eDe8rJbfz-72" value="Player Collects Keycard" style="text;html=1;strokeColor=none;fillColor=none;align=center;verticalAlign=middle;spacingLeft=4;spacingRight=4;whiteSpace=wrap;overflow=hidden;rotatable=0;fontColor=#000000;" vertex="1" parent="qXrGf-TQxH9eDe8rJbfz-71">
          <mxGeometry y="30" width="200" height="70" as="geometry" />
        </mxCell>
        <mxCell id="qXrGf-TQxH9eDe8rJbfz-77" value="Action&amp;lt;T,TData&amp;gt;" style="html=1;verticalAlign=bottom;endArrow=block;curved=0;rounded=0;exitX=1;exitY=0;exitDx=0;exitDy=0;entryX=0;entryY=0;entryDx=0;entryDy=0;strokeWidth=2;flowAnimation=0;jumpStyle=none;" edge="1" parent="WIyWlLk6GJQsqaUBKTNV-1" source="qXrGf-TQxH9eDe8rJbfz-72" target="qXrGf-TQxH9eDe8rJbfz-83">
          <mxGeometry y="10" width="80" relative="1" as="geometry">
            <mxPoint x="395" y="380" as="sourcePoint" />
            <mxPoint x="325" y="310" as="targetPoint" />
            <mxPoint as="offset" />
          </mxGeometry>
        </mxCell>
        <mxCell id="qXrGf-TQxH9eDe8rJbfz-79" value="OnCollection" style="edgeLabel;html=1;align=center;verticalAlign=middle;resizable=0;points=[];" vertex="1" connectable="0" parent="qXrGf-TQxH9eDe8rJbfz-77">
          <mxGeometry x="0.0125" y="-18" relative="1" as="geometry">
            <mxPoint as="offset" />
          </mxGeometry>
        </mxCell>
        <mxCell id="qXrGf-TQxH9eDe8rJbfz-82" value="Inventory" style="swimlane;fontStyle=1;align=center;verticalAlign=middle;childLayout=stackLayout;horizontal=1;startSize=30;horizontalStack=0;resizeParent=0;resizeLast=1;container=0;fontColor=#000000;collapsible=0;rounded=1;arcSize=30;strokeColor=#ff0000;fillColor=#ffffc0;swimlaneFillColor=#ffffc0;dropTarget=0;" vertex="1" parent="WIyWlLk6GJQsqaUBKTNV-1">
          <mxGeometry x="355" y="260" width="190" height="100" as="geometry" />
        </mxCell>
        <mxCell id="qXrGf-TQxH9eDe8rJbfz-83" value="ItemType &amp;lt;Keycard&amp;gt; Increases by &amp;lt;int&amp;gt;" style="text;html=1;strokeColor=none;fillColor=none;align=center;verticalAlign=middle;spacingLeft=4;spacingRight=4;whiteSpace=wrap;overflow=hidden;rotatable=0;fontColor=#000000;" vertex="1" parent="qXrGf-TQxH9eDe8rJbfz-82">
          <mxGeometry y="30" width="190" height="70" as="geometry" />
        </mxCell>
        <mxCell id="qXrGf-TQxH9eDe8rJbfz-94" value="ItemType &amp;lt;Keycard&amp;gt; Increases by &amp;lt;int&amp;gt;" style="text;html=1;strokeColor=none;fillColor=none;align=center;verticalAlign=middle;spacingLeft=4;spacingRight=4;whiteSpace=wrap;overflow=hidden;rotatable=0;fontColor=#000000;" vertex="1" parent="qXrGf-TQxH9eDe8rJbfz-82">
          <mxGeometry y="100" width="190" as="geometry" />
        </mxCell>
        <mxCell id="qXrGf-TQxH9eDe8rJbfz-88" value="Item[KEYCARD] Collected" style="rounded=1;whiteSpace=wrap;html=1;arcSize=40;fontColor=#000000;fillColor=#ffffc0;strokeColor=#ff0000;perimeterSpacing=0;shadow=0;glass=0;strokeWidth=5;gradientColor=none;fontStyle=1;fontSize=15;" vertex="1" parent="WIyWlLk6GJQsqaUBKTNV-1">
          <mxGeometry x="945" y="260" width="135" height="60" as="geometry" />
        </mxCell>
        <mxCell id="qXrGf-TQxH9eDe8rJbfz-89" style="edgeStyle=orthogonalEdgeStyle;rounded=0;orthogonalLoop=1;jettySize=auto;html=1;exitX=1;exitY=0;exitDx=0;exitDy=0;entryX=0;entryY=0.5;entryDx=0;entryDy=0;dashed=1;strokeWidth=2;" edge="1" parent="WIyWlLk6GJQsqaUBKTNV-1" source="qXrGf-TQxH9eDe8rJbfz-83" target="qXrGf-TQxH9eDe8rJbfz-88">
          <mxGeometry relative="1" as="geometry">
            <Array as="points">
              <mxPoint x="655" y="290" />
              <mxPoint x="655" y="290" />
            </Array>
          </mxGeometry>
        </mxCell>
        <mxCell id="qXrGf-TQxH9eDe8rJbfz-91" value="Interactable&#xa;[TERMINAL]" style="swimlane;fontStyle=1;align=center;verticalAlign=middle;childLayout=stackLayout;horizontal=1;startSize=30;horizontalStack=0;resizeParent=0;resizeLast=1;container=0;fontColor=#000000;collapsible=0;rounded=1;arcSize=30;strokeColor=#ff0000;fillColor=#ffffc0;swimlaneFillColor=#ffffc0;dropTarget=0;" vertex="1" parent="WIyWlLk6GJQsqaUBKTNV-1">
          <mxGeometry x="55" y="420" width="160" height="60" as="geometry" />
        </mxCell>
        <mxCell id="qXrGf-TQxH9eDe8rJbfz-92" value="Player interacts with Terminal" style="text;html=1;strokeColor=none;fillColor=none;align=center;verticalAlign=middle;spacingLeft=4;spacingRight=4;whiteSpace=wrap;overflow=hidden;rotatable=0;fontColor=#000000;" vertex="1" parent="qXrGf-TQxH9eDe8rJbfz-91">
          <mxGeometry y="30" width="160" height="30" as="geometry" />
        </mxCell>
        <mxCell id="qXrGf-TQxH9eDe8rJbfz-95" value="UnityEvent" style="html=1;verticalAlign=bottom;endArrow=block;curved=0;rounded=0;entryX=0;entryY=0;entryDx=0;entryDy=0;exitX=1;exitY=0;exitDx=0;exitDy=0;strokeWidth=2;" edge="1" parent="WIyWlLk6GJQsqaUBKTNV-1" source="qXrGf-TQxH9eDe8rJbfz-92" target="qXrGf-TQxH9eDe8rJbfz-98">
          <mxGeometry width="80" relative="1" as="geometry">
            <mxPoint x="215" y="449.5" as="sourcePoint" />
            <mxPoint x="305" y="449.5" as="targetPoint" />
          </mxGeometry>
        </mxCell>
        <mxCell id="qXrGf-TQxH9eDe8rJbfz-96" value="OnInteract" style="edgeLabel;html=1;align=center;verticalAlign=middle;resizable=0;points=[];" vertex="1" connectable="0" parent="qXrGf-TQxH9eDe8rJbfz-95">
          <mxGeometry x="-0.0197" y="-18" relative="1" as="geometry">
            <mxPoint as="offset" />
          </mxGeometry>
        </mxCell>
        <mxCell id="qXrGf-TQxH9eDe8rJbfz-97" value="Interactable&#xa;[DOOR]" style="swimlane;fontStyle=1;align=center;verticalAlign=middle;childLayout=stackLayout;horizontal=1;startSize=30;horizontalStack=0;resizeParent=0;resizeLast=1;container=0;fontColor=#000000;collapsible=0;rounded=1;arcSize=30;strokeColor=#ff0000;fillColor=#ffffc0;swimlaneFillColor=#ffffc0;dropTarget=0;" vertex="1" parent="WIyWlLk6GJQsqaUBKTNV-1">
          <mxGeometry x="310" y="420" width="220" height="100" as="geometry" />
        </mxCell>
        <mxCell id="qXrGf-TQxH9eDe8rJbfz-98" value="Attempt to Spawn Item" style="text;html=1;strokeColor=none;fillColor=none;align=center;verticalAlign=middle;spacingLeft=4;spacingRight=4;whiteSpace=wrap;overflow=hidden;rotatable=0;fontColor=#000000;" vertex="1" parent="qXrGf-TQxH9eDe8rJbfz-97">
          <mxGeometry y="30" width="220" height="70" as="geometry" />
        </mxCell>
      </root>
    </mxGraphModel>
  </diagram>
</mxfile>
